nColumns=28
nRows=26
DataType=double
version=3
OpenSimVersion=4.1
endheader
time	ground_force_1_vx	ground_force_1_vy	ground_force_1_vz	ground_force_1_px	ground_force_1_py	ground_force_1_pz	ground_force_1_mx	ground_force_1_my	ground_force_1_mz	ground_force_2_vx	ground_force_2_vy	ground_force_2_vz	ground_force_2_px	ground_force_2_py	ground_force_2_pz	ground_force_2_mx	ground_force_2_my	ground_force_2_mz	ground_force_3_vx	ground_force_3_vy	ground_force_3_vz	ground_force_3_px	ground_force_3_py	ground_force_3_pz	ground_force_3_mx	ground_force_3_my	ground_force_3_mz
6.51	-4.98625	354.45	-96.2271	-0.207267	0.006	-0.431923	0	-2.07396	0	-5.26581	358.172	97.61	-0.204388	0.006	-0.923074	0	2.0819	0	0	0	0	0	0	0	0	0	0
6.52	-5.35967	351.966	-98.5202	-0.206752	0.006	-0.431415	0	-1.82171	0	-5.25128	356.362	99.9513	-0.203836	0.006	-0.92334	0	1.70244	0	0	0	0	0	0	0	0	0	0
6.53	-5.71574	349.737	-100.522	-0.206286	0.006	-0.431001	0	-1.56692	0	-5.15284	354.617	101.914	-0.203327	0.006	-0.923514	0	1.31997	0	0	0	0	0	0	0	0	0	0
6.54	-6.0552	347.76	-102.242	-0.205867	0.006	-0.430677	0	-1.31306	0	-4.97325	352.919	103.517	-0.202858	0.006	-0.923606	0	0.940459	0	0	0	0	0	0	0	0	0	0
6.55	-6.37906	346.022	-103.694	-0.205495	0.006	-0.430442	0	-1.06342	0	-4.72143	351.25	104.78	-0.202426	0.006	-0.923628	0	0.568869	0	0	0	0	0	0	0	0	0	0
6.56	-6.68839	344.5	-104.887	-0.205167	0.006	-0.430293	0	-0.821015	0	-4.41073	349.589	105.724	-0.202023	0.006	-0.923589	0	0.209263	0	0	0	0	0	0	0	0	0	0
6.57	-6.98247	343.162	-105.837	-0.204883	0.006	-0.430226	0	-0.588684	0	-4.05547	347.911	106.372	-0.20164	0.006	-0.923501	0	-0.135167	0	0	0	0	0	0	0	0	0	0
6.58	-7.25727	341.979	-106.556	-0.204647	0.006	-0.430235	0	-0.369048	0	-3.66902	346.19	106.75	-0.201268	0.006	-0.923376	0	-0.462076	0	0	0	0	0	0	0	0	0	0
6.59	-7.50446	340.924	-107.06	-0.204462	0.006	-0.430316	0	-0.164515	0	-3.26449	344.399	106.885	-0.200899	0.006	-0.923226	0	-0.769969	0	0	0	0	0	0	0	0	0	0
6.6	-7.71226	339.973	-107.366	-0.204334	0.006	-0.430461	0	0.022913	0	-2.8553	342.511	106.807	-0.200525	0.006	-0.923061	0	-1.05808	0	0	0	0	0	0	0	0	0	0
6.61	-7.86864	339.106	-107.495	-0.204267	0.006	-0.430662	0	0.191748	0	-2.45364	340.505	106.546	-0.20014	0.006	-0.922892	0	-1.32599	0	0	0	0	0	0	0	0	0	0
6.62	-7.96486	338.298	-107.465	-0.204262	0.006	-0.43091	0	0.341137	0	-2.06905	338.363	106.129	-0.199741	0.006	-0.922726	0	-1.57319	0	0	0	0	0	0	0	0	0	0
6.63	-7.99714	337.523	-107.298	-0.204314	0.006	-0.431197	0	0.470991	0	-1.70847	336.073	105.58	-0.199328	0.006	-0.922567	0	-1.7991	0	0	0	0	0	0	0	0	0	0
6.64	-7.96602	336.746	-107.016	-0.204415	0.006	-0.43151	0	0.582003	0	-1.37644	333.626	104.921	-0.198903	0.006	-0.922419	0	-2.00294	0	0	0	0	0	0	0	0	0	0
6.65	-7.87431	335.931	-106.637	-0.204554	0.006	-0.43184	0	0.675541	0	-1.07559	331.018	104.172	-0.198469	0.006	-0.922285	0	-2.1839	0	0	0	0	0	0	0	0	0	0
6.66	-7.72513	335.036	-106.179	-0.204717	0.006	-0.432174	0	0.753426	0	-0.806857	328.254	103.35	-0.19803	0.006	-0.922169	0	-2.34142	0	0	0	0	0	0	0	0	0	0
6.67	-7.52169	334.022	-105.656	-0.204891	0.006	-0.432502	0	0.817599	0	-0.570142	325.342	102.473	-0.197588	0.006	-0.922072	0	-2.4753	0	0	0	0	0	0	0	0	0	0
6.68	-7.26861	332.858	-105.079	-0.20506	0.006	-0.432812	0	0.869875	0	-0.366825	322.291	101.555	-0.197146	0.006	-0.921996	0	-2.5858	0	0	0	0	0	0	0	0	0	0
6.69	-6.97231	331.521	-104.458	-0.205212	0.006	-0.433093	0	0.911787	0	-0.201462	319.111	100.609	-0.196703	0.006	-0.921944	0	-2.67347	0	0	0	0	0	0	0	0	0	0
6.7	-6.63893	329.997	-103.799	-0.205338	0.006	-0.433341	0	0.944418	0	-0.0810365	315.816	99.6499	-0.196257	0.006	-0.921916	0	-2.7389	0	0	0	0	0	0	0	0	0	0
6.71	-6.27183	328.285	-103.106	-0.205433	0.006	-0.433552	0	0.968399	0	-0.0128645	312.428	98.6889	-0.195807	0.006	-0.921911	0	-2.78271	0	0	0	0	0	0	0	0	0	0
6.72	-5.87246	326.388	-102.382	-0.205495	0.006	-0.433727	0	0.984199	0	-0.00310194	308.979	97.7385	-0.195353	0.006	-0.921928	0	-2.80568	0	0	0	0	0	0	0	0	0	0
6.73	-5.44324	324.319	-101.626	-0.205525	0.006	-0.433867	0	0.992364	0	-0.0564129	305.508	96.8097	-0.194894	0.006	-0.921963	0	-2.8088	0	0	0	0	0	0	0	0	0	0
6.74	-4.98992	322.092	-100.84	-0.205524	0.006	-0.433977	0	0.993454	0	-0.176242	302.055	95.9104	-0.194432	0.006	-0.922012	0	-2.79329	0	0	0	0	0	0	0	0	0	0
6.75	-4.5224	319.73	-100.019	-0.205494	0.006	-0.434062	0	0.987889	0	-0.364742	298.661	95.0439	-0.193967	0.006	-0.922072	0	-2.76073	0	0	0	0	0	0	0	0	0	0
6.76	-4.05359	317.26	-99.1611	-0.205438	0.006	-0.434128	0	0.976013	0	-0.620738	295.357	94.2079	-0.193497	0.006	-0.922137	0	-2.71331	0	0	0	0	0	0	0	0	0	0
